<?xml version="1.0" encoding="UTF-8"?>
<!DOCTYPE svg PUBLIC "-//W3C//DTD SVG 1.1//EN" "http://www.w3.org/Graphics/SVG/1.1/DTD/svg11.dtd">
<!-- Creator: CorelDRAW X6 -->
<svg xmlns="http://www.w3.org/2000/svg" xml:space="preserve" width="107.686mm" height="108.904mm" version="1.1" style="shape-rendering:geometricPrecision; text-rendering:geometricPrecision; image-rendering:optimizeQuality; fill-rule:evenodd; clip-rule:evenodd"
viewBox="0 0 12398 12538"
 xmlns:xlink="http://www.w3.org/1999/xlink">
 <defs>
  <style type="text/css">
   <![CDATA[
    .str0 {stroke:#00AFEF;stroke-width:8.77308}
    .fil0 {fill:#00AFEF}
   ]]>
  </style>
 </defs>
 <g id="Camada_x0020_1">
  <metadata id="CorelCorpID_0Corel-Layer"/>
  <path class="fil0 str0" d="M632 9017l307 -190c-1527,-3251 217,-7135 3901,-8083l27 294 1404 -717 -1545 -315 49 361c-3188,680 -6087,4484 -4144,8651z"/>
  <path class="fil0 str0" d="M6629 244l11 361c3579,300 6073,3751 5055,7417l-268 -124 -80 1575 1044 -1181 -337 -137c1003,-3102 -845,-7513 -5425,-7911z"/>
  <path class="fil0 str0" d="M11253 9831l-317 -192c-1984,2911 -6424,3553 -9050,580l279 -228 -1374 -788 570 1485 251 -227c2147,2644 6998,3093 9641,-630z"/>
  <rect class="fil0" transform="matrix(0.373515 0.647461 -0.681815 0.393334 9761.17 4031.96)" width="670" height="10814" rx="250" ry="250"/>
  <rect class="fil0" transform="matrix(0.717199 0.210582 -0.0597381 0.203456 4206.23 7216.97)" width="670" height="10814" rx="250" ry="250"/>
  <rect class="fil0" transform="matrix(-0.171792 0.727466 -0.206368 -0.0487342 4574.98 7179.59)" width="670" height="10814" rx="250" ry="250"/>
  <rect class="fil0" transform="matrix(-0.157466 0.730701 0.207286 0.04467 7937.4 5100.26)" width="670" height="10814" rx="250" ry="250"/>
  <rect class="fil0" transform="matrix(0.721199 0.19645 0.055729 -0.20459 7728.47 5406.39)" width="670" height="10814" rx="250" ry="250"/>
  <rect class="fil0" transform="matrix(0.747472 -0.00214378 0.00225753 0.787133 5941.04 2124.66)" width="670" height="10814" rx="250" ry="250"/>
  <rect class="fil0" transform="matrix(0.539309 -0.517557 0.146821 0.152992 5942.44 8527.92)" width="670" height="10814" rx="250" ry="250"/>
  <rect class="fil0" transform="matrix(0.545752 0.510759 -0.144893 0.154819 6093.35 8189.39)" width="670" height="10814" rx="250" ry="250"/>
  <rect class="fil0" transform="matrix(0.555682 0.499938 0.141823 -0.157636 5961.12 4238.18)" width="670" height="10814" rx="250" ry="250"/>
  <rect class="fil0" transform="matrix(0.529036 -0.528053 -0.149799 -0.150078 6122.85 4571.68)" width="670" height="10814" rx="250" ry="250"/>
  <rect class="fil0" transform="matrix(-0.377283 0.645273 -0.679511 -0.397301 10002.1 8302.08)" width="670" height="10814" rx="250" ry="250"/>
  <rect class="fil0" transform="matrix(0.172493 0.7273 -0.206321 0.0489331 4482.91 5055.44)" width="670" height="10814" rx="250" ry="250"/>
  <rect class="fil0" transform="matrix(-0.716996 0.211273 -0.0599342 -0.203398 4698.11 5357.21)" width="670" height="10814" rx="250" ry="250"/>
  <rect class="fil0" transform="matrix(-0.712707 0.22532 0.0639191 0.202181 8170.41 7247.36)" width="670" height="10814" rx="250" ry="250"/>
  <rect class="fil0" transform="matrix(0.18675 0.723771 0.20532 -0.0529775 7800.97 7217.59)" width="670" height="10814" rx="250" ry="250"/>
 </g>
</svg>
